<svg xmlns="http://www.w3.org/2000/svg" id="Capa_1" data-name="Capa 1" viewBox="0.00 201.72 1080.00 676.56"><defs><filter id="drop-shadow-2" width="986.78" height="556.76" x="46.61" y="261.62" filterUnits="userSpaceOnUse"><feOffset dx="-54.61" dy="54.61"/><feGaussianBlur result="blur" stdDeviation="54.61"/><feFlood flood-color="#000" flood-opacity=".25"/><feComposite in2="blur" operator="in"/><feComposite in="SourceGraphic"/></filter><style>.cls-2{fill:#bfbdc8}</style></defs><g style="filter:url(#drop-shadow-2)"><path d="M310.04 726.49c21.02-17.52 24.62-39.23 24.62-58.67v-81.78H220.47v110.97c0 15.87-12.87 28.73-28.73 28.73s-27.64-12.86-27.64-28.73v-314.4c0-15.87 11.78-28.72 27.64-28.72s28.73 12.85 28.73 28.72v111.65h114.05V378.43c0-64.01-41.82-116.68-143.72-116.81-104.64 0-144.18 52.93-144.18 116.93V706.8c0 63.45 50.37 111.47 114.78 111.46h35.38l113.27-91.77Zm450.19 12.89V378.64h-78.79v-106.3h285.22v106.3h-79.21v438.97h-33.78zM502.86 522.9l30.77-157.19 30.58 157.19zm110-249.94H453.73l-92.71 415.91 172.62-139.3 179.99 150.8z" class="cls-2"/><path d="M811.33 818.38 533.58 585.69 245.75 818.38zm190.94-522.06v-9.09h6.07c3.1 0 6.4.67 6.4 4.31 0 4.51-3.38 4.78-7.15 4.78zm0 3.77h5.12l7.74 12.73h4.99l-8.35-12.93c4.3-.54 7.62-2.83 7.62-8.09 0-5.79-3.44-8.35-10.38-8.35h-11.18v29.37h4.44zm5.39 23.51c13.89 0 25.74-10.78 25.74-25.53s-11.85-25.39-25.74-25.39-25.86 10.77-25.86 25.39 11.85 25.53 25.86 25.53m-20.74-25.53c0-12.06 9.09-21.15 20.74-21.15s20.62 9.09 20.62 21.15-9.09 21.29-20.62 21.29-20.74-9.02-20.74-21.29" class="cls-2"/></g></svg>