<?xml version="1.0" encoding="UTF-8" standalone="no"?>
<!-- Created with Inkscape (http://www.inkscape.org/) -->

<svg
   xmlns:dc="http://purl.org/dc/elements/1.1/"
   xmlns:cc="http://creativecommons.org/ns#"
   xmlns:rdf="http://www.w3.org/1999/02/22-rdf-syntax-ns#"
   xmlns:svg="http://www.w3.org/2000/svg"
   xmlns="http://www.w3.org/2000/svg"
   xmlns:sodipodi="http://sodipodi.sourceforge.net/DTD/sodipodi-0.dtd"
   xmlns:inkscape="http://www.inkscape.org/namespaces/inkscape"
   width="3227.3"
   height="520"
   id="svg11128"
   version="1.1"
   inkscape:version="0.48.4 r9939"
   sodipodi:docname="Neues Dokument 3">
  <defs
     id="defs11130" />
  <sodipodi:namedview
     id="base"
     pagecolor="#ffffff"
     bordercolor="#666666"
     borderopacity="1.0"
     inkscape:pageopacity="0.0"
     inkscape:pageshadow="2"
     inkscape:zoom="0.48327307"
     inkscape:cx="1613.65"
     inkscape:cy="260"
     inkscape:document-units="px"
     inkscape:current-layer="layer1"
     showgrid="false"
     fit-margin-top="0"
     fit-margin-left="0"
     fit-margin-right="0"
     fit-margin-bottom="0"
     inkscape:window-width="1680"
     inkscape:window-height="990"
     inkscape:window-x="-4"
     inkscape:window-y="-4"
     inkscape:window-maximized="1" />
  <metadata
     id="metadata11133">
    <rdf:RDF>
      <cc:Work
         rdf:about="">
        <dc:format>image/svg+xml</dc:format>
        <dc:type
           rdf:resource="http://purl.org/dc/dcmitype/StillImage" />
        <dc:title></dc:title>
      </cc:Work>
    </rdf:RDF>
  </metadata>
  <g
     inkscape:label="Ebene 1"
     inkscape:groupmode="layer"
     id="layer1"
     transform="translate(-285.98777,-15.51352)">
    <path
       d="m 2911.1112,371.12508 0,37.39866 -255.6222,0 0,-260.52168 78.7804,0 0,223.12302 z m -490.0952,0 176.7712,0 0,37.39866 -255.6573,0 0,-260.52168 78.8861,0 z m -368.4173,2.96088 194.3955,0 0,35.42474 -273.5284,0 0,-262.31935 1.0913,0.81212 269.3338,0 0,38.9496 -190.5887,0 0,67.53613 150.2644,0 0,37.92739 -150.9693,0 z m -298.0966,-99.04829 -121.8541,0 0,-83.82094 123.7575,0 c 23.3698,-0.28199 43.2147,19.73916 42.0867,43.42615 -0.4935,23.44026 -20.6909,41.73423 -43.9901,40.39479 z m 122.7705,-47.72648 c 0.423,-47.44448 -41.0997,-79.30913 -90.6944,-79.30913 l -235.319,0 0,261.50864 79.2387,0 0,-99.18928 81.9527,0 69.7921,98.20232 86.6055,0 -72.1537,-102.43214 c 43.8844,0.45964 80.3314,-34.68453 80.5781,-78.78041 z m -1286.71129,-80.11984 104.6528,0 0,261.0504 -81.28304,0 0,-213.64117 -92.28058,213.92316 -77.47621,0 -100.31723,-207.78992 0,207.78992 -47.86747,0 0,-261.33239 103.31336,0 102.04441,210.78604 z m 273.35213,226.89461 194.53646,0 0,35.42474 -273.84559,0 0,-262.31935 1.26895,0.81212 269.36904,0 0,38.9496 -190.80013,0 0,67.53613 150.33483,0 0,37.92739 -150.86356,0 z m 477.05326,-99.04829 -121.7836,0 0,-83.82094 123.8632,0 c 23.2288,-0.28199 42.9327,19.73916 42.1572,43.42615 -0.4568,23.44026 -20.9023,41.73423 -44.2368,40.39479 z m 122.9467,-47.72648 c 0.3892,-47.44448 -41.1702,-79.30913 -91.0821,-79.30913 l -234.8608,0 0,261.50864 79.5207,0 0,-99.18928 81.565,0 69.6158,98.20232 86.7465,0 -71.9774,-102.43214 c 43.7434,0.45964 80.4018,-34.68453 80.4723,-78.78041 M 3503.286,275.4959 c 0,138.10363 -111.1033,250.01762 -248.1494,250.01762 -137.0462,0 -248.1495,-111.91399 -248.1495,-250.01762 0,-138.03314 111.1033,-249.98238 248.1495,-249.98238 137.0461,0 248.1494,111.94924 248.1494,249.98238"
       style="fill:#ea8122;fill-opacity:1;fill-rule:nonzero;stroke:none"
       id="path8066"
       inkscape:connector-curvature="0"
       sodipodi:nodetypes="cccccccccccccccccccccccccccccccccccsccccccccccccccccccccccccccccccccccccccccccccsccccccccccsssc" />
    <g
       id="g8068"
       transform="matrix(35.248502,0,0,-35.248502,3112.0276,94.14235)">
      <path
         inkscape:connector-curvature="0"
         d="m 0,0 0,-9.994 3.062,0.701 0,6.589 2.115,-6.137 1.896,0.436 1.415,4.913 0,-4.595 1.231,0.286 0,5.533 L 7.607,-1.765 6.291,-6.04 4.577,-1.078 0,0"
         style="fill:#ffffff;fill-opacity:1;fill-rule:nonzero;stroke:none"
         id="path8070" />
    </g>
  </g>
</svg>
